%FSLAX34Y34*%
%MOMM*%
%LNCOPPER_BOTTOM*%
G71*
G01*
%ADD10C,1.000*%
%ADD11C,0.500*%
%ADD12C,1.600*%
%ADD13C,1.800*%
%ADD14C,0.600*%
%ADD15C,0.222*%
%LPD*%
G54D10*
X-762000Y520700D02*
X-787400Y520700D01*
X-787400Y565150D01*
X-584200Y565150D01*
G54D11*
X-762000Y495300D02*
X-749300Y482600D01*
X-716333Y482549D01*
G54D10*
X-330200Y533400D02*
X-63091Y530908D01*
X-63500Y323850D01*
X-31750Y323850D01*
G54D10*
X-31750Y298450D02*
X-196850Y298450D01*
X-222250Y285750D01*
G54D10*
X-736600Y444500D02*
X-685800Y444500D01*
X-609600Y330200D01*
X-558800Y330200D01*
G54D11*
X-736600Y469900D02*
X-749300Y457200D01*
X-749300Y431800D01*
X-699249Y431749D01*
G54D10*
X-31750Y247650D02*
X-31750Y133350D01*
G54D12*
X-322200Y584200D02*
X-338200Y584200D01*
G54D12*
X-322200Y558800D02*
X-338200Y558800D01*
G54D12*
X-322200Y533400D02*
X-338200Y533400D01*
G54D12*
X-322200Y508000D02*
X-338200Y508000D01*
G54D12*
X-322200Y482600D02*
X-338200Y482600D01*
G54D12*
X-322200Y457200D02*
X-338200Y457200D01*
G54D12*
X-322200Y431800D02*
X-338200Y431800D01*
G54D12*
X-322200Y406400D02*
X-338200Y406400D01*
G54D12*
X-322200Y381000D02*
X-338200Y381000D01*
G54D12*
X-322200Y355600D02*
X-338200Y355600D01*
G54D12*
X-322200Y330200D02*
X-338200Y330200D01*
G54D12*
X-322200Y304800D02*
X-338200Y304800D01*
G54D12*
X-322200Y279400D02*
X-338200Y279400D01*
G54D12*
X-322200Y254000D02*
X-338200Y254000D01*
G54D12*
X-322200Y228600D02*
X-338200Y228600D01*
G54D12*
X-322200Y203200D02*
X-338200Y203200D01*
G54D12*
X-322200Y177800D02*
X-338200Y177800D01*
G54D12*
X-322200Y152400D02*
X-338200Y152400D01*
G54D12*
X-322200Y127000D02*
X-338200Y127000D01*
G54D12*
X-550800Y584200D02*
X-566800Y584200D01*
G54D12*
X-550800Y558800D02*
X-566800Y558800D01*
G54D12*
X-550800Y533400D02*
X-566800Y533400D01*
G54D12*
X-550800Y508000D02*
X-566800Y508000D01*
G54D12*
X-550800Y482600D02*
X-566800Y482600D01*
G54D12*
X-550800Y457200D02*
X-566800Y457200D01*
G54D12*
X-550800Y431800D02*
X-566800Y431800D01*
G54D12*
X-550800Y406400D02*
X-566800Y406400D01*
G54D12*
X-550800Y381000D02*
X-566800Y381000D01*
G54D12*
X-550800Y355600D02*
X-566800Y355600D01*
G54D12*
X-550800Y330200D02*
X-566800Y330200D01*
G54D12*
X-550800Y304800D02*
X-566800Y304800D01*
G54D12*
X-550800Y279400D02*
X-566800Y279400D01*
G54D12*
X-550800Y254000D02*
X-566800Y254000D01*
G54D12*
X-550800Y228600D02*
X-566800Y228600D01*
G54D12*
X-550800Y203200D02*
X-566800Y203200D01*
G54D12*
X-550800Y177800D02*
X-566800Y177800D01*
G54D12*
X-550800Y152400D02*
X-566800Y152400D01*
G54D12*
X-550800Y127000D02*
X-566800Y127000D01*
X-736600Y546100D02*
G54D13*
D03*
X-736600Y520700D02*
G54D13*
D03*
X-736600Y495300D02*
G54D13*
D03*
X-736600Y469900D02*
G54D13*
D03*
X-736600Y444500D02*
G54D13*
D03*
X-736600Y419100D02*
G54D13*
D03*
X-736600Y393700D02*
G54D13*
D03*
X-736600Y368300D02*
G54D13*
D03*
X-736600Y342900D02*
G54D13*
D03*
X-736600Y317500D02*
G54D13*
D03*
X-736600Y292100D02*
G54D13*
D03*
X-736600Y266700D02*
G54D13*
D03*
X-736600Y241300D02*
G54D13*
D03*
X-762000Y546100D02*
G54D13*
D03*
X-762000Y520700D02*
G54D13*
D03*
X-762000Y495300D02*
G54D13*
D03*
X-762000Y469900D02*
G54D13*
D03*
X-762000Y444500D02*
G54D13*
D03*
X-762000Y419100D02*
G54D13*
D03*
X-762000Y393700D02*
G54D13*
D03*
X-762000Y368300D02*
G54D13*
D03*
X-762000Y342900D02*
G54D13*
D03*
X-762000Y317500D02*
G54D13*
D03*
X-762000Y292100D02*
G54D13*
D03*
X-762000Y266700D02*
G54D13*
D03*
X-762000Y241300D02*
G54D13*
D03*
G54D12*
X-23750Y374650D02*
X-39750Y374650D01*
G54D12*
X-23750Y349250D02*
X-39750Y349250D01*
G54D12*
X-23750Y323850D02*
X-39750Y323850D01*
G54D12*
X-23750Y298450D02*
X-39750Y298450D01*
G54D12*
X-23750Y273050D02*
X-39750Y273050D01*
G54D12*
X-23750Y247650D02*
X-39750Y247650D01*
G54D12*
X-23750Y400050D02*
X-39750Y400050D01*
G54D12*
X-23750Y425450D02*
X-39750Y425450D01*
G54D12*
X-23750Y450850D02*
X-39750Y450850D01*
G54D12*
X-23750Y476250D02*
X-39750Y476250D01*
G54D12*
X-23750Y501650D02*
X-39750Y501650D01*
G54D12*
X-252350Y374650D02*
X-268350Y374650D01*
G54D12*
X-252350Y349250D02*
X-268350Y349250D01*
G54D12*
X-252350Y323850D02*
X-268350Y323850D01*
G54D12*
X-252350Y298450D02*
X-268350Y298450D01*
G54D12*
X-252350Y273050D02*
X-268350Y273050D01*
G54D12*
X-252350Y247650D02*
X-268350Y247650D01*
G54D12*
X-252350Y400050D02*
X-268350Y400050D01*
G54D12*
X-252350Y425450D02*
X-268350Y425450D01*
G54D12*
X-252350Y450850D02*
X-268350Y450850D01*
G54D12*
X-252350Y476250D02*
X-268350Y476250D01*
G54D12*
X-252350Y501650D02*
X-268350Y501650D01*
G54D12*
X-31750Y141398D02*
X-31750Y125398D01*
G54D12*
X-57150Y141398D02*
X-57150Y125398D01*
G54D12*
X-23750Y476250D02*
X-39750Y476250D01*
G54D10*
X-57150Y133350D02*
X-57150Y285750D01*
G54D14*
X-57150Y285750D02*
X-6350Y285750D01*
X-6350Y311150D01*
X-69850Y311150D01*
G54D10*
X-260350Y298450D02*
X-228600Y298450D01*
X-228600Y323850D01*
X-82550Y323850D01*
X-69850Y311150D01*
G54D10*
X-558800Y279400D02*
X-520700Y279400D01*
X-520700Y107950D01*
X-298450Y107950D01*
G54D10*
X-298450Y107950D02*
X-298450Y285750D01*
G54D14*
X-222250Y285750D02*
X-298450Y285750D01*
G54D10*
X-260350Y273050D02*
X-260350Y247650D01*
X-57150Y247650D01*
G54D10*
X-260350Y501650D02*
X-228600Y501650D01*
X-228600Y323850D01*
G54D10*
X-260350Y374650D02*
X-285750Y374650D01*
X-285750Y520700D01*
X-304800Y520700D01*
G54D14*
X-584200Y546100D02*
X-533400Y546100D01*
G54D10*
X-533400Y546100D02*
X-361950Y546100D01*
X-361950Y520700D01*
G54D10*
X-584200Y565150D02*
X-584200Y546100D01*
G54D14*
X-361950Y520700D02*
X-304800Y520700D01*
G54D10*
X-260350Y349250D02*
X-298450Y349250D01*
X-298450Y368300D01*
G54D14*
X-298450Y368300D02*
X-361950Y368300D01*
G54D10*
X-361950Y368300D02*
X-361950Y419100D01*
X-532051Y418920D01*
G54D14*
X-532051Y418920D02*
X-596900Y419100D01*
G54D10*
X-596900Y419100D02*
X-596900Y482600D01*
X-716333Y482549D01*
G54D10*
X-558800Y304800D02*
X-615950Y304800D01*
X-699249Y431749D01*
G54D12*
X-209550Y52450D02*
X-209550Y36450D01*
G54D12*
X-184150Y52450D02*
X-184150Y36450D01*
G54D12*
X-158750Y52450D02*
X-158750Y36450D01*
G54D12*
X-133350Y52450D02*
X-133350Y36450D01*
G54D12*
X-107950Y52450D02*
X-107950Y36450D01*
G54D12*
X-82550Y52450D02*
X-82550Y36450D01*
G54D12*
X-57150Y52450D02*
X-57150Y36450D01*
G54D12*
X-31750Y52450D02*
X-31750Y36450D01*
G54D10*
X-558800Y584200D02*
X-812800Y584200D01*
X-812800Y241300D01*
X-762000Y241300D01*
X-762000Y215900D01*
X-590550Y215900D01*
X-590550Y82550D01*
X-298450Y82550D01*
X-298450Y19050D01*
X-31750Y19050D01*
X-31750Y44450D01*
G54D10*
X-57150Y133398D02*
X-57150Y88948D01*
G54D12*
X-31750Y96948D02*
X-31750Y80948D01*
G54D12*
X-57150Y96948D02*
X-57150Y80948D01*
G54D10*
X-31750Y44450D02*
X-31750Y88948D01*
X-31750Y133398D01*
G54D10*
X-57150Y88948D02*
X-57150Y44450D01*
G54D15*
X-82550Y90328D02*
X-71883Y90328D01*
G54D15*
X-77217Y94772D02*
X-77217Y85883D01*
G54D15*
X-19050Y90328D02*
X-8383Y90328D01*
G54D15*
X-447867Y304800D02*
X-457200Y304800D01*
X-457200Y322578D01*
X-447867Y322578D01*
G54D15*
X-457200Y313689D02*
X-447867Y313689D01*
G54D15*
X-442978Y308133D02*
X-441645Y305911D01*
X-438978Y304800D01*
X-436311Y304800D01*
X-433645Y305911D01*
X-432311Y308133D01*
X-432311Y310356D01*
X-433645Y312578D01*
X-436311Y313689D01*
X-438978Y313689D01*
X-441645Y314800D01*
X-442978Y317022D01*
X-442978Y319244D01*
X-441645Y321467D01*
X-438978Y322578D01*
X-436311Y322578D01*
X-433645Y321467D01*
X-432311Y319244D01*
G54D15*
X-427422Y304800D02*
X-427422Y322578D01*
X-420755Y322578D01*
X-418089Y321467D01*
X-416755Y319244D01*
X-416755Y317022D01*
X-418089Y314800D01*
X-420755Y313689D01*
X-427422Y313689D01*
G54D15*
X-411866Y319244D02*
X-410533Y321467D01*
X-407866Y322578D01*
X-405199Y322578D01*
X-402533Y321467D01*
X-401199Y319244D01*
X-401199Y317022D01*
X-402533Y314800D01*
X-405199Y313689D01*
X-402533Y312578D01*
X-401199Y310356D01*
X-401199Y308133D01*
X-402533Y305911D01*
X-405199Y304800D01*
X-407866Y304800D01*
X-410533Y305911D01*
X-411866Y308133D01*
G54D15*
X-385643Y304800D02*
X-396310Y304800D01*
X-396310Y305911D01*
X-394977Y308133D01*
X-386977Y314800D01*
X-385643Y317022D01*
X-385643Y319244D01*
X-386977Y321467D01*
X-389643Y322578D01*
X-392310Y322578D01*
X-394977Y321467D01*
X-396310Y319244D01*
G54D15*
X-712217Y269239D02*
X-708217Y267017D01*
X-706883Y264794D01*
X-706883Y260350D01*
G54D15*
X-717550Y260350D02*
X-717550Y278128D01*
X-710883Y278128D01*
X-708217Y277017D01*
X-706883Y274794D01*
X-706883Y272572D01*
X-708217Y270350D01*
X-710883Y269239D01*
X-717550Y269239D01*
G54D15*
X-701994Y260350D02*
X-701994Y278128D01*
X-695327Y278128D01*
X-692661Y277017D01*
X-691327Y274794D01*
X-691327Y272572D01*
X-692661Y270350D01*
X-695327Y269239D01*
X-701994Y269239D01*
G54D15*
X-686438Y260350D02*
X-686438Y278128D01*
G54D15*
X-668393Y260350D02*
X-668393Y278128D01*
X-676393Y267017D01*
X-676393Y264794D01*
X-665726Y264794D01*
G54D15*
X-203200Y428783D02*
X-201867Y426561D01*
X-199200Y425450D01*
X-196533Y425450D01*
X-193867Y426561D01*
X-192533Y428783D01*
X-192533Y431006D01*
X-193867Y433228D01*
X-196533Y434339D01*
X-199200Y434339D01*
X-201867Y435450D01*
X-203200Y437672D01*
X-203200Y439894D01*
X-201867Y442117D01*
X-199200Y443228D01*
X-196533Y443228D01*
X-193867Y442117D01*
X-192533Y439894D01*
G54D15*
X-176977Y428783D02*
X-178311Y426561D01*
X-180977Y425450D01*
X-183644Y425450D01*
X-186311Y426561D01*
X-187644Y428783D01*
X-187644Y439894D01*
X-186311Y442117D01*
X-183644Y443228D01*
X-180977Y443228D01*
X-178311Y442117D01*
X-176977Y439894D01*
G54D15*
X-172088Y436561D02*
X-165421Y443228D01*
X-165421Y425450D01*
G54D15*
X-149865Y439894D02*
X-151199Y442117D01*
X-153865Y443228D01*
X-156532Y443228D01*
X-159199Y442117D01*
X-160532Y439894D01*
X-160532Y434339D01*
X-160532Y433228D01*
X-156532Y435450D01*
X-153865Y435450D01*
X-151199Y434339D01*
X-149865Y432117D01*
X-149865Y428783D01*
X-151199Y426561D01*
X-153865Y425450D01*
X-156532Y425450D01*
X-159199Y426561D01*
X-160532Y428783D01*
X-160532Y434339D01*
G54D15*
X-144976Y425450D02*
X-144976Y443228D01*
G54D15*
X-140087Y428783D02*
X-138754Y426561D01*
X-136087Y425450D01*
X-133420Y425450D01*
X-130754Y426561D01*
X-129420Y428783D01*
X-129420Y431006D01*
X-130754Y433228D01*
X-133420Y434339D01*
X-136087Y434339D01*
X-138754Y435450D01*
X-140087Y437672D01*
X-140087Y439894D01*
X-138754Y442117D01*
X-136087Y443228D01*
X-133420Y443228D01*
X-130754Y442117D01*
X-129420Y439894D01*
G54D15*
X-124531Y443228D02*
X-113864Y443228D01*
X-115198Y441006D01*
X-117864Y437672D01*
X-120531Y433228D01*
X-121864Y429894D01*
X-121864Y425450D01*
G54D15*
X-98308Y443228D02*
X-108975Y443228D01*
X-108975Y435450D01*
X-107642Y435450D01*
X-104975Y436561D01*
X-102308Y436561D01*
X-99642Y435450D01*
X-98308Y433228D01*
X-98308Y428783D01*
X-99642Y426561D01*
X-102308Y425450D01*
X-104975Y425450D01*
X-107642Y426561D01*
X-108975Y428783D01*
G54D15*
X-82752Y439894D02*
X-82752Y428783D01*
X-84086Y426561D01*
X-86752Y425450D01*
X-89419Y425450D01*
X-92086Y426561D01*
X-93419Y428783D01*
X-93419Y439894D01*
X-92086Y442117D01*
X-89419Y443228D01*
X-86752Y443228D01*
X-84086Y442117D01*
X-82752Y439894D01*
G54D10*
X-762000Y444500D02*
X-813535Y444500D01*
X-813688Y444348D01*
M02*
