; Drill file
; Format: 2.4 (00.0000)
M48
INCH
T01C0.0315
%
G05
G90
T01
X-001250Y001750
X-002250Y001750
X-003250Y001750
X-004250Y001750
X-005250Y001750
X-006250Y001750
X-007250Y001750
X-008250Y001750
X-013000Y005000
X-013000Y006000
X-013000Y007000
X-013000Y008000
X-013000Y009000
X-013000Y010000
X-013000Y011000
X-013000Y012000
X-013000Y013000
X-013000Y014000
X-013000Y015000
X-013000Y016000
X-013000Y017000
X-013000Y018000
X-013000Y019000
X-013000Y020000
X-013000Y021000
X-013000Y022000
X-013000Y023000
X-010250Y019750
X-010250Y018750
X-010250Y017750
X-010250Y016750
X-010250Y015750
X-010250Y014750
X-010250Y013750
X-010250Y012750
X-010250Y011750
X-010250Y010750
X-010250Y009750
X-001250Y009750
X-001250Y010750
X-001250Y011750
X-001250Y012750
X-001250Y013750
X-001250Y014750
X-001250Y015750
X-001250Y016750
X-001250Y017750
X-001250Y018750
X-001250Y019750
X-001250Y005250
X-002250Y005250
X-002250Y003500
X-001250Y003500
X-022000Y005000
X-022000Y006000
X-022000Y007000
X-022000Y008000
X-022000Y009000
X-022000Y010000
X-022000Y011000
X-022000Y012000
X-022000Y013000
X-022000Y014000
X-022000Y015000
X-022000Y016000
X-022000Y017000
X-022000Y018000
X-022000Y019000
X-022000Y020000
X-022000Y021000
X-022000Y022000
X-022000Y023000
X-029000Y021500
X-029000Y020500
X-029000Y019500
X-029000Y018500
X-029000Y017500
X-029000Y016500
X-029000Y015500
X-029000Y014500
X-029000Y013500
X-029000Y012500
X-029000Y011500
X-029000Y010500
X-029000Y009500
X-030000Y009500
X-030000Y010500
X-030000Y011500
X-030000Y012500
X-030000Y013500
X-030000Y014500
X-030000Y015500
X-030000Y016500
X-030000Y017500
X-030000Y018500
X-030000Y019500
X-030000Y020500
X-030000Y021500
M30
