; Drill file
; Format: 2.4 (00.0000)
M48
INCH
T01C0.0315
%
G05
G90
T01
X038260Y001490
X037260Y001490
X039080Y002530
X039150Y007690
X038250Y008920
X037250Y008920
X025030Y008240
X022890Y009490
X020890Y009490
X019890Y009490
X018890Y009490
X017890Y009490
X017890Y008250
X017890Y007380
X018890Y008240
X019890Y008240
X020890Y008240
X020890Y007360
X020840Y003990
X019820Y004020
X018820Y004020
X016820Y000740
X012650Y001350
X012650Y002350
X011390Y004740
X009100Y005030
X008100Y005030
X007100Y005030
X007090Y001900
X008090Y001900
X009090Y001900
X004730Y001640
X003730Y001640
X002320Y001630
X001320Y001630
X002380Y004460
X002320Y008920
X001320Y008920
X003730Y008940
X004730Y008940
X012420Y008250
X012400Y007330
X013410Y009190
X015870Y009360
M30
