%FSLAX34Y34*%
%MOMM*%
%LNCOPPER_BOTTOM*%
G71*
G01*
%ADD10C,2.400*%
%ADD11C,1.600*%
%ADD12C,2.000*%
%ADD13C,0.800*%
%ADD14C,1.200*%
%ADD15C,1.400*%
%ADD16C,1.000*%
%LPD*%
X340509Y233425D02*
G54D10*
D03*
G54D11*
X297212Y120319D02*
X281212Y120319D01*
G54D11*
X435325Y18719D02*
X419325Y18719D01*
G54D12*
X454312Y230969D02*
X454312Y250969D01*
G54D12*
X530512Y230969D02*
X530512Y250969D01*
G54D12*
X505112Y230969D02*
X505112Y250969D01*
G54D12*
X479712Y230969D02*
X479712Y250969D01*
G36*
X591312Y220969D02*
X591312Y260969D01*
X571312Y260969D01*
X571312Y220969D01*
X591312Y220969D01*
G37*
G54D13*
X994509Y195250D02*
X644128Y190897D01*
X627459Y186928D01*
X596900Y186928D01*
X596900Y159544D01*
X403393Y160722D01*
X403115Y237794D01*
G54D13*
X992509Y64250D02*
X991791Y160338D01*
X971550Y176609D01*
X609997Y173831D01*
X609997Y147638D01*
X392606Y147594D01*
X392509Y218678D01*
X340509Y233425D01*
G54D12*
X971440Y216681D02*
X971440Y236681D01*
G54D12*
X946040Y216681D02*
X946040Y236681D01*
G54D12*
X971837Y27769D02*
X971837Y47769D01*
G54D12*
X946437Y27769D02*
X946437Y47769D01*
G54D12*
X120143Y217078D02*
X120143Y237078D01*
G54D12*
X94743Y217078D02*
X94743Y237078D01*
G54D12*
X120143Y31738D02*
X120143Y51738D01*
G54D12*
X94743Y31738D02*
X94743Y51738D01*
G54D12*
X59024Y216681D02*
X59024Y236681D01*
G54D12*
X33624Y216681D02*
X33624Y236681D01*
G54D12*
X59024Y31341D02*
X59024Y51341D01*
G54D12*
X33624Y31341D02*
X33624Y51341D01*
G54D14*
X971440Y226681D02*
X971440Y254287D01*
X599900Y254000D01*
X581312Y240969D01*
G54D14*
X971440Y226681D02*
X1022284Y226681D01*
X1022350Y37703D01*
X971837Y37769D01*
G54D14*
X581312Y240969D02*
X581819Y171450D01*
X430609Y171450D01*
X430212Y255588D01*
X326231Y255588D01*
G54D12*
X413115Y237794D02*
X393115Y237794D01*
G54D11*
X538512Y209219D02*
X522512Y209219D01*
G54D11*
X538512Y186994D02*
X522512Y186994D01*
G54D13*
X530512Y240969D02*
X530512Y186994D01*
G54D11*
X462312Y209616D02*
X446312Y209616D01*
G54D11*
X462312Y187391D02*
X446312Y187391D01*
G54D13*
X454312Y241366D02*
X454312Y187391D01*
G54D11*
X505112Y217220D02*
X505112Y201220D01*
G54D13*
X505112Y240969D02*
X505112Y209220D01*
G54D11*
X479712Y217220D02*
X479712Y201220D01*
G54D13*
X479712Y240969D02*
X479712Y209220D01*
G54D11*
X643684Y209219D02*
X627684Y209219D01*
G54D13*
X635684Y209219D02*
X921831Y208029D01*
X946040Y226681D01*
G54D11*
X529322Y109269D02*
X529322Y93269D01*
G54D13*
X94743Y41738D02*
X94743Y147924D01*
X145256Y161528D01*
X157956Y174625D01*
X264319Y174625D01*
X281781Y147241D01*
X344488Y147638D01*
X344488Y97631D01*
X431800Y97631D01*
X431800Y66675D01*
X529828Y66675D01*
X529322Y101269D01*
G54D11*
X503524Y110063D02*
X503524Y94063D01*
G54D11*
X478124Y110063D02*
X478124Y94063D01*
G54D13*
X478124Y102063D02*
X456406Y101600D01*
X456406Y120253D01*
X370218Y120320D01*
X370284Y170259D01*
X298053Y170656D01*
X279400Y198438D01*
X146050Y198041D01*
X133350Y185341D01*
X33734Y185341D01*
X33624Y226681D01*
G54D13*
X503524Y101490D02*
X503524Y102063D01*
X503634Y78581D01*
X445691Y78581D01*
X445691Y109538D01*
X359172Y109538D01*
X359172Y159147D01*
X289322Y159147D01*
X272256Y186531D01*
X152797Y186531D01*
X139700Y173434D01*
X78184Y159147D01*
X78184Y81756D01*
X35322Y81756D01*
X34925Y42641D01*
X33624Y41341D01*
G54D11*
X323406Y209616D02*
X307406Y209616D01*
G54D11*
X323009Y186200D02*
X307009Y186200D01*
G54D13*
X315009Y186200D02*
X382478Y185450D01*
X382588Y132159D01*
X946547Y131366D01*
X946437Y37769D01*
G54D13*
X315406Y209616D02*
X138443Y209616D01*
X138112Y209947D01*
X137319Y209947D01*
X124222Y196850D01*
X94456Y197247D01*
X94743Y227078D01*
X179965Y48325D02*
G54D10*
D03*
G36*
X210345Y24325D02*
X217365Y31345D01*
X217365Y65305D01*
X210345Y72325D01*
X200385Y72325D01*
X193365Y65305D01*
X193365Y31345D01*
X200385Y24325D01*
X210345Y24325D01*
G37*
G36*
X235745Y24325D02*
X242765Y31345D01*
X242765Y65305D01*
X235745Y72325D01*
X225785Y72325D01*
X218765Y65305D01*
X218765Y31345D01*
X225785Y24325D01*
X235745Y24325D01*
G37*
G36*
X175382Y151699D02*
X168362Y144679D01*
X168362Y110719D01*
X175382Y103699D01*
X185342Y103699D01*
X192362Y110719D01*
X192362Y144679D01*
X185342Y151699D01*
X175382Y151699D01*
G37*
G36*
X201612Y147699D02*
X195762Y141849D01*
X195762Y113549D01*
X201612Y107699D01*
X209912Y107699D01*
X215762Y113549D01*
X215762Y141849D01*
X209912Y147699D01*
X201612Y147699D01*
G37*
G36*
X226182Y151699D02*
X219162Y144679D01*
X219162Y110719D01*
X226182Y103699D01*
X236142Y103699D01*
X243162Y110719D01*
X243162Y144679D01*
X236142Y151699D01*
X226182Y151699D01*
G37*
G36*
X301370Y24185D02*
X341370Y24185D01*
X341370Y44185D01*
X301370Y44185D01*
X301370Y24185D01*
G37*
G54D12*
X331370Y59585D02*
X311370Y59585D01*
G54D11*
X992509Y72250D02*
X992509Y56250D01*
G54D11*
X994509Y203250D02*
X994509Y187250D01*
G54D11*
X60509Y121250D02*
X60509Y105250D01*
G54D15*
X321370Y59585D02*
X242025Y59585D01*
X230765Y48325D01*
G54D15*
X205365Y48325D02*
X205365Y85112D01*
X289322Y85328D01*
X289322Y120209D01*
X289212Y120319D01*
G54D16*
X231162Y127699D02*
X231162Y100625D01*
X231378Y100409D01*
X179388Y100409D01*
X179388Y126724D01*
X180362Y127699D01*
G54D16*
X180362Y127699D02*
X157068Y127302D01*
X157162Y13891D01*
G54D16*
X205762Y127699D02*
X205184Y160734D01*
X251222Y160734D01*
X267494Y135731D01*
X315516Y135731D01*
X315516Y77391D01*
X355997Y77391D01*
X355997Y35719D01*
X427038Y35719D01*
X427434Y35322D01*
X427434Y18829D01*
X427325Y18719D01*
G54D14*
X120143Y41738D02*
X120143Y15588D01*
X120253Y15478D01*
G54D14*
X59024Y41341D02*
X59024Y16162D01*
X58738Y15875D01*
G54D15*
X59024Y226681D02*
X59024Y252303D01*
X59134Y252412D01*
G54D15*
X120143Y227078D02*
X120143Y253493D01*
X120253Y253603D01*
G54D15*
X60509Y113250D02*
X16809Y113250D01*
X16669Y113109D01*
G54D15*
X321370Y34185D02*
X321866Y13891D01*
X12700Y12700D01*
X12700Y255588D01*
X326231Y255588D01*
M02*
