%FSLAX34Y34*%
%MOMM*%
%LNCOPPER_BOTTOM*%
G71*
G01*
%ADD10C,2.200*%
%ADD11C,0.222*%
%ADD12C,1.400*%
%LPD*%
X40088Y32124D02*
G54D10*
D03*
X40088Y57524D02*
G54D10*
D03*
X40088Y82924D02*
G54D10*
D03*
X40088Y108324D02*
G54D10*
D03*
X40088Y133724D02*
G54D10*
D03*
X40088Y159124D02*
G54D10*
D03*
X40088Y184524D02*
G54D10*
D03*
X40088Y209924D02*
G54D10*
D03*
X40088Y235324D02*
G54D10*
D03*
X40088Y260724D02*
G54D10*
D03*
X40088Y286124D02*
G54D10*
D03*
X40088Y311524D02*
G54D10*
D03*
X40088Y336924D02*
G54D10*
D03*
X14688Y32124D02*
G54D10*
D03*
X14688Y57524D02*
G54D10*
D03*
X14688Y82924D02*
G54D10*
D03*
X14688Y108324D02*
G54D10*
D03*
X14688Y133724D02*
G54D10*
D03*
X14688Y159124D02*
G54D10*
D03*
X14688Y184524D02*
G54D10*
D03*
X14688Y209924D02*
G54D10*
D03*
X14688Y235324D02*
G54D10*
D03*
X14688Y260724D02*
G54D10*
D03*
X14688Y286124D02*
G54D10*
D03*
X14688Y311524D02*
G54D10*
D03*
X14688Y336924D02*
G54D10*
D03*
G54D11*
X82727Y44914D02*
X86727Y42692D01*
X88060Y40470D01*
X88060Y36025D01*
G54D11*
X77394Y36025D02*
X77394Y53803D01*
X84060Y53803D01*
X86727Y52692D01*
X88060Y50470D01*
X88060Y48247D01*
X86727Y46025D01*
X84060Y44914D01*
X77394Y44914D01*
G54D11*
X92950Y36025D02*
X92950Y53803D01*
X99616Y53803D01*
X102283Y52692D01*
X103616Y50470D01*
X103616Y48247D01*
X102283Y46025D01*
X99616Y44914D01*
X92950Y44914D01*
G54D11*
X108506Y36025D02*
X108506Y53803D01*
G54D11*
X126550Y36025D02*
X126550Y53803D01*
X118550Y42692D01*
X118550Y40470D01*
X129217Y40470D01*
G54D12*
X40088Y286124D02*
X113506Y286104D01*
X113486Y105546D01*
X160978Y105546D01*
G54D12*
X138708Y132647D02*
X160184Y132136D01*
G54D12*
X40088Y235324D02*
X66278Y235304D01*
X66278Y13450D01*
X160181Y13450D01*
G54D12*
X40088Y260724D02*
X88900Y260704D01*
X89297Y86475D01*
X160181Y86475D01*
G54D12*
X153181Y86475D02*
X167181Y86475D01*
G54D12*
X153184Y132136D02*
X167184Y132136D01*
G54D12*
X153181Y13450D02*
X167181Y13450D01*
G36*
X146978Y112546D02*
X174978Y112546D01*
X174978Y98546D01*
X146978Y98546D01*
X146978Y112546D01*
G37*
M02*
