%FSLAX34Y34*%
%MOMM*%
%LNCOPPER_BOTTOM*%
G71*
G01*
%ADD10C,2.200*%
%ADD11C,0.222*%
%ADD12C,1.400*%
%LPD*%
X140734Y30560D02*
G54D10*
D03*
X140734Y55960D02*
G54D10*
D03*
X140734Y81360D02*
G54D10*
D03*
X140734Y106760D02*
G54D10*
D03*
X140734Y132160D02*
G54D10*
D03*
X140734Y157560D02*
G54D10*
D03*
X140734Y182960D02*
G54D10*
D03*
X140734Y208360D02*
G54D10*
D03*
X140734Y233760D02*
G54D10*
D03*
X140734Y259160D02*
G54D10*
D03*
X140734Y284560D02*
G54D10*
D03*
X140734Y309960D02*
G54D10*
D03*
X140734Y335360D02*
G54D10*
D03*
X166134Y30560D02*
G54D10*
D03*
X166134Y55960D02*
G54D10*
D03*
X166134Y81360D02*
G54D10*
D03*
X166134Y106760D02*
G54D10*
D03*
X166134Y132160D02*
G54D10*
D03*
X166134Y157560D02*
G54D10*
D03*
X166134Y182960D02*
G54D10*
D03*
X166134Y208360D02*
G54D10*
D03*
X166134Y233760D02*
G54D10*
D03*
X166134Y259160D02*
G54D10*
D03*
X166134Y284560D02*
G54D10*
D03*
X166134Y309960D02*
G54D10*
D03*
X166134Y335360D02*
G54D10*
D03*
G54D11*
X98095Y43350D02*
X94095Y41128D01*
X92762Y38906D01*
X92762Y34461D01*
G54D11*
X103428Y34461D02*
X103428Y52239D01*
X96762Y52239D01*
X94095Y51128D01*
X92762Y48906D01*
X92762Y46683D01*
X94095Y44461D01*
X96762Y43350D01*
X103428Y43350D01*
G54D11*
X87872Y34461D02*
X87872Y52239D01*
X81206Y52239D01*
X78539Y51128D01*
X77206Y48906D01*
X77206Y46683D01*
X78539Y44461D01*
X81206Y43350D01*
X87872Y43350D01*
G54D11*
X72316Y34461D02*
X72316Y52239D01*
G54D11*
X54272Y34461D02*
X54272Y52239D01*
X62272Y41128D01*
X62272Y38906D01*
X51605Y38906D01*
G54D12*
X140734Y284560D02*
X67316Y284540D01*
X67336Y103982D01*
X19844Y103982D01*
G54D12*
X42114Y131083D02*
X20638Y130572D01*
G54D12*
X140734Y233760D02*
X114544Y233740D01*
X114544Y11886D01*
X20641Y11886D01*
G54D12*
X140734Y259160D02*
X91922Y259140D01*
X91525Y84911D01*
X20641Y84911D01*
G54D12*
X27641Y84911D02*
X13641Y84911D01*
G54D12*
X27638Y130572D02*
X13638Y130572D01*
G54D12*
X27641Y11886D02*
X13641Y11886D01*
G36*
X33844Y110982D02*
X5844Y110982D01*
X5844Y96982D01*
X33844Y96982D01*
X33844Y110982D01*
G37*
M02*
