; Drill file
; Format: 2.4 (00.0000)
M48
INCH
T01C0.0315
%
G05
G90
T01
X000580Y001260
X001580Y001260
X001580Y002260
X001580Y003260
X001580Y004260
X001580Y005260
X001580Y006260
X001580Y007260
X001580Y008260
X001580Y009260
X001580Y010260
X001580Y011260
X001580Y012260
X001580Y013260
X000580Y013260
X000580Y012260
X000580Y011260
X000580Y010260
X000580Y009260
X000580Y008260
X000580Y007260
X000580Y006260
X000580Y005260
X000580Y004260
X000580Y003260
X000580Y002260
X004450Y006530
X005450Y006530
X007880Y005200
X007910Y004160
X007880Y003400
X007880Y000530
X005470Y010370
X004470Y010370
M30
