; Drill file
; Format: 2.4 (00.0000)
M48
INCH
T01C0.0315
%
G05
G90
T01
X006540Y001200
X005540Y001200
X005540Y002200
X005540Y003200
X005540Y004200
X005540Y005200
X005540Y006200
X005540Y007200
X005540Y008200
X005540Y009200
X005540Y010200
X005540Y011200
X005540Y012200
X005540Y013200
X006540Y013200
X006540Y012200
X006540Y011200
X006540Y010200
X006540Y009200
X006540Y008200
X006540Y007200
X006540Y006200
X006540Y005200
X006540Y004200
X006540Y003200
X006540Y002200
X000810Y003340
X000780Y004090
X000810Y005140
X000810Y000470
M30
