; Drill file
; Format: 2.4 (00.0000)
M48
INCH
T01C0.0315
T02C0.0394
T03C0.0591
%
G05
G90
T01
X039080Y002530
X040050Y003380
X040050Y004470
X040050Y005810
X040050Y006940
X039150Y007690
X026400Y001970
X025850Y001470
X025300Y001970
X024560Y000890
X022890Y001990
X021890Y001990
X020890Y001990
X019890Y001990
X018890Y001990
X017890Y001990
X016890Y001990
X015890Y001990
X014890Y001990
X013890Y001990
X015240Y004790
X014740Y005340
X015240Y005890
X014890Y007990
X015890Y007990
X016890Y007990
X017890Y007990
X018890Y007990
X019890Y007990
X020890Y007990
X021890Y007990
X022890Y007990
X022890Y009490
X021890Y009490
X020890Y009490
X019890Y009490
X018890Y009490
X017890Y009490
X015870Y009360
X013890Y007990
X013410Y009190
X011390Y004740
X016820Y000740
X019030Y003640
X020680Y003380
X021660Y004070
X020620Y004690
X018900Y005340
X019450Y006250
X021310Y000870
X002380Y004460
X001080Y004450
X001080Y003360
X001080Y005790
X001080Y006920
T02
X031390Y003170
X029720Y003170
X029720Y007420
X031390Y007420
T03
X007320Y005320
M30
