%FSLAX34Y34*%
%MOMM*%
%LNOUTLINE*%
G71*
G01*
%ADD10C,0.300*%
%ADD11C,0.800*%
%LPD*%
G54D10*
X959812Y94984D02*
X959812Y174984D01*
X717312Y174984D01*
X717312Y94984D01*
X959812Y94984D01*
G36*
X1036412Y31700D02*
X1035412Y238072D01*
X1033182Y253428D01*
X1026412Y265100D01*
X845912Y265100D01*
X845912Y210100D01*
X703912Y210100D01*
X703912Y265100D01*
X265912Y265100D01*
X285912Y185100D01*
X77912Y185100D01*
X98912Y265100D01*
X16912Y265100D01*
X11078Y247856D01*
X8468Y234212D01*
X10654Y32558D01*
X12812Y20200D01*
X17604Y5282D01*
X95730Y5282D01*
X96912Y4100D01*
X76912Y85100D01*
X285912Y85100D01*
X265912Y5100D01*
X703912Y5100D01*
X703912Y60100D01*
X845912Y60100D01*
X845912Y5100D01*
X1026344Y5100D01*
X1033334Y15486D01*
X1036412Y31700D01*
G37*
G54D11*
X1036412Y31700D02*
X1035412Y238072D01*
X1033182Y253428D01*
X1026412Y265100D01*
X845912Y265100D01*
X845912Y210100D01*
X703912Y210100D01*
X703912Y265100D01*
X265912Y265100D01*
X285912Y185100D01*
X77912Y185100D01*
X98912Y265100D01*
X16912Y265100D01*
X11078Y247856D01*
X8468Y234212D01*
X10654Y32558D01*
X12812Y20200D01*
X17604Y5282D01*
X95730Y5282D01*
X96912Y4100D01*
X76912Y85100D01*
X285912Y85100D01*
X265912Y5100D01*
X703912Y5100D01*
X703912Y60100D01*
X845912Y60100D01*
X845912Y5100D01*
X1026344Y5100D01*
X1033334Y15486D01*
X1036412Y31700D01*
M02*
