%FSLAX34Y34*%
%MOMM*%
%LNCOPPER_BOTTOM*%
G71*
G01*
%ADD10C,2.000*%
%ADD11C,1.600*%
%ADD12C,2.400*%
%ADD13C,1.600*%
%ADD14C,1.200*%
%ADD15C,1.400*%
%ADD16C,1.000*%
%ADD17C,3.000*%
%ADD18C,0.300*%
%ADD19C,0.800*%
%LPD*%
G54D10*
X454312Y192869D02*
X454312Y212869D01*
G54D10*
X428912Y192869D02*
X428912Y212869D01*
G54D10*
X403512Y192869D02*
X403512Y212869D01*
G54D10*
X378112Y192869D02*
X378112Y212869D01*
G54D10*
X352712Y192869D02*
X352712Y212869D01*
G54D10*
X555912Y192869D02*
X555912Y212869D01*
G54D10*
X530512Y192869D02*
X530512Y212869D01*
G54D10*
X505112Y192869D02*
X505112Y212869D01*
G54D10*
X479712Y192869D02*
X479712Y212869D01*
G54D10*
X454312Y40469D02*
X454312Y60469D01*
G54D11*
X428912Y42469D02*
X428912Y58469D01*
G54D10*
X403512Y40469D02*
X403512Y60469D01*
G54D10*
X581312Y40469D02*
X581312Y60469D01*
G54D10*
X555912Y40469D02*
X555912Y60469D01*
G54D11*
X530512Y42469D02*
X530512Y58469D01*
G54D10*
X505112Y40469D02*
X505112Y60469D01*
G54D10*
X479712Y40469D02*
X479712Y60469D01*
G36*
X388112Y30469D02*
X388112Y70469D01*
X368112Y70469D01*
X368112Y30469D01*
X388112Y30469D01*
G37*
G36*
X591312Y182869D02*
X591312Y222869D01*
X571312Y222869D01*
X571312Y182869D01*
X591312Y182869D01*
G37*
X550196Y103459D02*
G54D12*
D03*
X523680Y119059D02*
G54D12*
D03*
X387080Y149558D02*
G54D13*
D03*
X374380Y135558D02*
G54D13*
D03*
X387080Y121558D02*
G54D13*
D03*
G54D14*
X525197Y85740D02*
X581025Y78978D01*
X581312Y50469D01*
G54D15*
X541328Y22216D02*
X553641Y32544D01*
X555912Y50469D01*
X642564Y50028D02*
G54D13*
D03*
X656564Y37328D02*
G54D13*
D03*
X670564Y50028D02*
G54D13*
D03*
G54D16*
X479965Y135544D02*
X374380Y135558D01*
X479965Y135544D02*
G54D12*
D03*
X525197Y85740D02*
G54D12*
D03*
X623934Y22485D02*
G54D12*
D03*
X541328Y22216D02*
G54D12*
D03*
G54D15*
X1017365Y147613D02*
X969812Y147000D01*
X969812Y185000D01*
X944812Y201000D01*
X687303Y200000D01*
X686906Y249528D01*
X580637Y249031D01*
X581312Y202869D01*
G54D15*
X27365Y147113D02*
X62925Y147113D01*
G54D15*
X352712Y202869D02*
X300712Y167100D01*
G54D15*
X623934Y22485D02*
X655812Y22319D01*
X656564Y37328D01*
X340509Y233425D02*
G54D12*
D03*
G54D15*
X340509Y233425D02*
X365509Y240569D01*
X378509Y226472D01*
X378112Y202869D01*
X60509Y113250D02*
G54D17*
D03*
X994509Y195250D02*
G54D17*
D03*
X992509Y64250D02*
G54D17*
D03*
G54D15*
X378112Y192550D02*
X378112Y179300D01*
X361950Y153988D01*
G54D15*
X550196Y103459D02*
X642541Y103584D01*
X642564Y50028D01*
G54D15*
X494140Y158668D02*
X396189Y158668D01*
X387080Y149558D01*
G54D14*
X377824Y50800D02*
X377824Y18256D01*
X273843Y16669D01*
X293687Y102394D01*
X257174Y103188D01*
G54D15*
X1017365Y113613D02*
X970062Y115250D01*
X969812Y115000D01*
X969812Y79762D01*
X949722Y68659D01*
X704850Y69453D01*
X705140Y167800D01*
X544606Y167700D01*
G54D15*
X992509Y64250D02*
X1017365Y85963D01*
G54D15*
X994509Y195250D02*
X1017365Y176263D01*
G54D10*
X1027365Y176263D02*
X1007365Y176263D01*
G54D10*
X1027365Y147613D02*
X1007365Y147613D01*
G54D10*
X1027365Y113613D02*
X1007365Y113613D01*
G54D10*
X1027365Y85963D02*
X1007365Y85963D01*
G54D10*
X37365Y175763D02*
X17365Y175763D01*
G54D10*
X37365Y147113D02*
X17365Y147113D01*
G54D10*
X37365Y113113D02*
X17365Y113113D01*
G54D10*
X37365Y85463D02*
X17365Y85463D01*
G54D10*
X352712Y60469D02*
X352712Y40469D01*
G36*
X225812Y160000D02*
X145812Y160000D01*
X145812Y110000D01*
X225812Y110000D01*
X225812Y160000D01*
G37*
G54D18*
X225812Y160000D02*
X145812Y160000D01*
X145812Y110000D01*
X225812Y110000D01*
X225812Y160000D01*
G54D19*
X300712Y167100D02*
X86412Y166800D01*
G54D15*
X26509Y113250D02*
X60509Y113250D01*
G54D19*
X288812Y176000D02*
X27365Y175763D01*
G54D19*
X288812Y176000D02*
X326231Y255588D01*
X371872Y255588D01*
X403115Y237794D01*
G54D19*
X86412Y166800D02*
X62925Y147113D01*
G54D14*
X670564Y50028D02*
X688512Y49819D01*
X688412Y144219D01*
X511571Y144066D01*
G54D15*
X352712Y50469D02*
X352712Y88675D01*
X469137Y88668D01*
X505128Y98812D01*
X523680Y119059D01*
G54D14*
X511571Y144066D02*
X494222Y115605D01*
X405606Y115888D01*
X387080Y121558D01*
G54D16*
X387080Y121558D02*
X365124Y121444D01*
X339724Y138906D01*
G54D15*
X257174Y103188D02*
X257174Y138906D01*
G54D11*
X297212Y120319D02*
X281212Y120319D01*
G54D15*
X289212Y120319D02*
X331787Y119856D01*
X352712Y88675D01*
G54D11*
X435325Y18719D02*
X419325Y18719D01*
G54D14*
X403512Y50469D02*
X403512Y18544D01*
X427325Y18719D01*
G54D15*
X27365Y85463D02*
X64412Y84100D01*
X79812Y96000D01*
X236537Y96838D01*
X237662Y153150D01*
G54D16*
X361950Y153988D02*
X237662Y153150D01*
G54D16*
X339724Y138906D02*
X257174Y138906D01*
G54D19*
X428809Y176428D02*
X520794Y176428D01*
G54D16*
X428912Y202869D02*
X428912Y176531D01*
X428809Y176428D01*
G54D14*
X544606Y167700D02*
X529522Y167700D01*
X520794Y176428D01*
G54D15*
X403512Y202869D02*
X403115Y238985D01*
G54D10*
X454312Y230969D02*
X454312Y250969D01*
G54D10*
X530512Y230969D02*
X530512Y250969D01*
G54D10*
X505112Y230969D02*
X505112Y250969D01*
G54D10*
X479712Y230969D02*
X479712Y250969D01*
G54D15*
X530512Y240969D02*
X530512Y202869D01*
G54D15*
X505112Y240969D02*
X505112Y202869D01*
G54D15*
X479712Y240969D02*
X479712Y202869D01*
G54D15*
X454312Y240969D02*
X454312Y202869D01*
X494140Y158668D02*
G54D12*
D03*
X483424Y92390D02*
G54D12*
D03*
G36*
X591312Y220969D02*
X591312Y260969D01*
X571312Y260969D01*
X571312Y220969D01*
X591312Y220969D01*
G37*
X555912Y240969D02*
G54D12*
D03*
G54D10*
X413115Y237794D02*
X393115Y237794D01*
M02*
