%FSLAX34Y34*%
%MOMM*%
%LNCOPPER_BOTTOM*%
G71*
G01*
%ADD10C,0.800*%
%ADD11C,0.600*%
%ADD12C,1.600*%
%ADD13R,1.600X2.400*%
%LPD*%
G54D10*
X218850Y88485D02*
X41597Y87653D01*
G54D11*
X236397Y52963D02*
X236397Y72013D01*
X217347Y72013D01*
X217347Y87888D01*
G54D10*
X209919Y53016D02*
X172550Y53910D01*
G54D12*
X175097Y15113D02*
X175097Y31113D01*
G54D12*
X147447Y15113D02*
X147447Y31113D01*
G54D12*
X84797Y15113D02*
X84797Y31113D01*
G54D10*
X113447Y23113D02*
X106447Y35113D01*
G54D11*
X106447Y88788D02*
X106447Y35113D01*
G54D10*
X241200Y20910D02*
X249097Y40263D01*
X249097Y72013D01*
X243850Y88485D01*
G54D10*
X20200Y21910D02*
X10972Y40263D01*
X10972Y68838D01*
X16597Y87653D01*
G54D10*
X94047Y53910D02*
X50975Y53910D01*
G54D10*
X147550Y53910D02*
X119047Y53963D01*
G54D10*
X147550Y53910D02*
X147447Y23113D01*
X241200Y20910D02*
G54D13*
D03*
X216200Y20910D02*
G54D13*
D03*
X45200Y21116D02*
G54D13*
D03*
X20200Y21116D02*
G54D13*
D03*
X119047Y53910D02*
G54D13*
D03*
X94047Y53910D02*
G54D13*
D03*
X172550Y53910D02*
G54D13*
D03*
X147550Y53910D02*
G54D13*
D03*
X50975Y53910D02*
G54D13*
D03*
X25975Y53910D02*
G54D13*
D03*
X209919Y53016D02*
G54D13*
D03*
X234919Y53016D02*
G54D13*
D03*
X243850Y88485D02*
G54D13*
D03*
X218850Y88485D02*
G54D13*
D03*
X16597Y87653D02*
G54D13*
D03*
X41597Y87653D02*
G54D13*
D03*
G54D10*
X216200Y20910D02*
X195097Y20613D01*
X175097Y23113D01*
G54D10*
X45200Y21116D02*
X65244Y21116D01*
X84797Y23113D01*
G54D11*
X25975Y53910D02*
X25975Y71634D01*
X41531Y71616D01*
X41597Y87653D01*
G36*
X105447Y39113D02*
X121447Y39113D01*
X121447Y7113D01*
X105447Y7113D01*
X105447Y39113D01*
G37*
M02*
