; Drill file
; Format: 2.4 (00.0000)
M48
INCH
T01C0.0315
%
G05
G90
T01
X000520Y005380
X001520Y005380
X001520Y006380
X001520Y007380
X001520Y008380
X001520Y009380
X001520Y010380
X001520Y011380
X001520Y012380
X001520Y013380
X001520Y014380
X001520Y015380
X001520Y016380
X001520Y017380
X000520Y017380
X000520Y016380
X000520Y015380
X000520Y014380
X000520Y013380
X000520Y012380
X000520Y011380
X000520Y010380
X000520Y009380
X000520Y008380
X000520Y007380
X000520Y006380
X011500Y006330
X011500Y007330
X011500Y008330
X011500Y009330
X011500Y010330
X011500Y011330
X011500Y012330
X011500Y013330
X011500Y014330
X011500Y015330
X011500Y016330
X011500Y017330
X011500Y018330
X011500Y019330
X009500Y017360
X008500Y017360
X020500Y017330
X020500Y018330
X020500Y019330
X020500Y016330
X020500Y015330
X020500Y014330
X020500Y013330
X020500Y012330
X020500Y011330
X020500Y010330
X020500Y009330
X020500Y008330
X020500Y007330
X020500Y006330
X020500Y005330
X020500Y004330
X020500Y003330
X020500Y002330
X020500Y001330
X011500Y001330
X011500Y002330
X011500Y003330
X011500Y004330
X011500Y005330
M30
