%FSLAX34Y34*%
%MOMM*%
%LNCOPPER_BOTTOM*%
G71*
G01*
%ADD10C,2.000*%
%ADD11C,2.200*%
%ADD12C,1.200*%
%ADD13C,1.600*%
%ADD14C,0.222*%
%ADD15C,1.400*%
%LPD*%
G54D10*
X282100Y490918D02*
X302100Y490918D01*
G54D10*
X282100Y465518D02*
X302100Y465518D01*
G54D10*
X282100Y440118D02*
X302100Y440118D01*
G54D10*
X282100Y414718D02*
X302100Y414718D01*
G54D10*
X282100Y389318D02*
X302100Y389318D01*
G54D10*
X282100Y363918D02*
X302100Y363918D01*
G54D10*
X282100Y338518D02*
X302100Y338518D01*
G54D10*
X282100Y313118D02*
X302100Y313118D01*
G54D10*
X282100Y287718D02*
X302100Y287718D01*
G54D10*
X282100Y262318D02*
X302100Y262318D01*
G54D10*
X282100Y236918D02*
X302100Y236918D01*
G54D10*
X282100Y211518D02*
X302100Y211518D01*
G54D10*
X282100Y186118D02*
X302100Y186118D01*
G54D10*
X282100Y160718D02*
X302100Y160718D01*
G54D10*
X282100Y135318D02*
X302100Y135318D01*
G54D10*
X282100Y109918D02*
X302100Y109918D01*
G54D10*
X282100Y84518D02*
X302100Y84518D01*
G54D10*
X282100Y59118D02*
X302100Y59118D01*
G54D10*
X282100Y33718D02*
X302100Y33718D01*
G54D10*
X510700Y490918D02*
X530700Y490918D01*
G54D10*
X510700Y465518D02*
X530700Y465518D01*
G54D10*
X510700Y440118D02*
X530700Y440118D01*
G54D10*
X510700Y414718D02*
X530700Y414718D01*
G54D10*
X510700Y389318D02*
X530700Y389318D01*
G54D10*
X510700Y363918D02*
X530700Y363918D01*
G54D10*
X510700Y338518D02*
X530700Y338518D01*
G54D10*
X510700Y313118D02*
X530700Y313118D01*
G54D10*
X510700Y287718D02*
X530700Y287718D01*
G54D10*
X510700Y262318D02*
X530700Y262318D01*
G54D10*
X510700Y236918D02*
X530700Y236918D01*
G54D10*
X510700Y211518D02*
X530700Y211518D01*
G54D10*
X510700Y186118D02*
X530700Y186118D01*
G54D10*
X510700Y160718D02*
X530700Y160718D01*
G54D10*
X510700Y135318D02*
X530700Y135318D01*
G54D10*
X510700Y109918D02*
X530700Y109918D01*
G54D10*
X510700Y84518D02*
X530700Y84518D01*
G54D10*
X510700Y59118D02*
X530700Y59118D01*
G54D10*
X510700Y33718D02*
X530700Y33718D01*
X38500Y136545D02*
G54D11*
D03*
X38500Y161945D02*
G54D11*
D03*
X38500Y187345D02*
G54D11*
D03*
X38500Y212745D02*
G54D11*
D03*
X38500Y238145D02*
G54D11*
D03*
X38500Y263545D02*
G54D11*
D03*
X38500Y288945D02*
G54D11*
D03*
X38500Y314345D02*
G54D11*
D03*
X38500Y339745D02*
G54D11*
D03*
X38500Y365145D02*
G54D11*
D03*
X38500Y390545D02*
G54D11*
D03*
X38500Y415945D02*
G54D11*
D03*
X38500Y441345D02*
G54D11*
D03*
X13100Y136545D02*
G54D11*
D03*
X13100Y161945D02*
G54D11*
D03*
X13100Y187345D02*
G54D11*
D03*
X13100Y212745D02*
G54D11*
D03*
X13100Y238145D02*
G54D11*
D03*
X13100Y263545D02*
G54D11*
D03*
X13100Y288945D02*
G54D11*
D03*
X13100Y314345D02*
G54D11*
D03*
X13100Y339745D02*
G54D11*
D03*
X13100Y365145D02*
G54D11*
D03*
X13100Y390545D02*
G54D11*
D03*
X13100Y415945D02*
G54D11*
D03*
X13100Y441345D02*
G54D11*
D03*
G54D12*
X292100Y211518D02*
X136525Y211518D01*
X136525Y363918D01*
X38500Y365145D01*
G54D13*
X241300Y432864D02*
X241300Y448864D01*
G54D13*
X215900Y432864D02*
X215900Y448864D01*
G54D14*
X190900Y414566D02*
X201567Y414566D01*
G54D14*
X196233Y410122D02*
X196233Y419010D01*
G54D14*
X254400Y414566D02*
X265067Y414566D01*
G54D14*
X365335Y296568D02*
X356002Y296568D01*
X356002Y314346D01*
X365335Y314346D01*
G54D14*
X356002Y305457D02*
X365335Y305457D01*
G54D14*
X370224Y299901D02*
X371557Y297679D01*
X374224Y296568D01*
X376890Y296568D01*
X379557Y297679D01*
X380890Y299901D01*
X380890Y302123D01*
X379557Y304346D01*
X376890Y305457D01*
X374224Y305457D01*
X371557Y306568D01*
X370224Y308790D01*
X370224Y311012D01*
X371557Y313235D01*
X374224Y314346D01*
X376890Y314346D01*
X379557Y313235D01*
X380890Y311012D01*
G54D14*
X385780Y296568D02*
X385780Y314346D01*
X392446Y314346D01*
X395113Y313235D01*
X396446Y311012D01*
X396446Y308790D01*
X395113Y306568D01*
X392446Y305457D01*
X385780Y305457D01*
G54D14*
X401336Y311012D02*
X402669Y313235D01*
X405336Y314346D01*
X408002Y314346D01*
X410669Y313235D01*
X412002Y311012D01*
X412002Y308790D01*
X410669Y306568D01*
X408002Y305457D01*
X410669Y304346D01*
X412002Y302123D01*
X412002Y299901D01*
X410669Y297679D01*
X408002Y296568D01*
X405336Y296568D01*
X402669Y297679D01*
X401336Y299901D01*
G54D14*
X427558Y296568D02*
X416892Y296568D01*
X416892Y297679D01*
X418225Y299901D01*
X426225Y306568D01*
X427558Y308790D01*
X427558Y311012D01*
X426225Y313235D01*
X423558Y314346D01*
X420892Y314346D01*
X418225Y313235D01*
X416892Y311012D01*
G54D14*
X139877Y171164D02*
X143877Y168941D01*
X145210Y166719D01*
X145210Y162275D01*
G54D14*
X134544Y162275D02*
X134544Y180052D01*
X141210Y180052D01*
X143877Y178941D01*
X145210Y176719D01*
X145210Y174497D01*
X143877Y172275D01*
X141210Y171164D01*
X134544Y171164D01*
G54D14*
X150100Y162275D02*
X150100Y180052D01*
X156766Y180052D01*
X159433Y178941D01*
X160766Y176719D01*
X160766Y174497D01*
X159433Y172275D01*
X156766Y171164D01*
X150100Y171164D01*
G54D14*
X165656Y162275D02*
X165656Y180052D01*
G54D14*
X183701Y162275D02*
X183701Y180052D01*
X175701Y168941D01*
X175701Y166719D01*
X186367Y166719D01*
G54D15*
X38100Y389318D02*
X240900Y388091D01*
X241300Y440864D01*
G54D12*
X292100Y490918D02*
X241300Y490918D01*
G54D15*
X520700Y160718D02*
X479425Y160718D01*
X479425Y490918D01*
X292100Y490918D01*
G54D15*
X520700Y33718D02*
X552450Y33734D01*
X552053Y521493D01*
X215900Y521493D01*
X215900Y440864D01*
G54D12*
X38500Y339745D02*
X105151Y339745D01*
X105966Y338931D01*
X105569Y12303D01*
X327025Y12303D01*
X327025Y236934D01*
X292100Y236918D01*
G54D15*
X38500Y441345D02*
X38500Y415945D01*
G54D15*
X38500Y441345D02*
X215418Y441345D01*
X215900Y440864D01*
G54D15*
X241300Y490918D02*
X241300Y440864D01*
M02*
