%FSLAX34Y34*%
%MOMM*%
%LNCOPPER_BOTTOM*%
G71*
G01*
%ADD10C,2.000*%
%ADD11C,0.222*%
%ADD12C,1.400*%
%ADD13C,1.600*%
%LPD*%
G54D10*
X292696Y517668D02*
X272696Y517668D01*
G54D10*
X292696Y492268D02*
X272696Y492268D01*
G54D10*
X292696Y466868D02*
X272696Y466868D01*
G54D10*
X292696Y441468D02*
X272696Y441468D01*
G54D10*
X292696Y416068D02*
X272696Y416068D01*
G54D10*
X292696Y390668D02*
X272696Y390668D01*
G54D10*
X292696Y365268D02*
X272696Y365268D01*
G54D10*
X292696Y339868D02*
X272696Y339868D01*
G54D10*
X292696Y314468D02*
X272696Y314468D01*
G54D10*
X292696Y289068D02*
X272696Y289068D01*
G54D10*
X292696Y263668D02*
X272696Y263668D01*
G54D10*
X292696Y238268D02*
X272696Y238268D01*
G54D10*
X292696Y212868D02*
X272696Y212868D01*
G54D10*
X292696Y187468D02*
X272696Y187468D01*
G54D10*
X292696Y162068D02*
X272696Y162068D01*
G54D10*
X292696Y136668D02*
X272696Y136668D01*
G54D10*
X292696Y111268D02*
X272696Y111268D01*
G54D10*
X292696Y85868D02*
X272696Y85868D01*
G54D10*
X292696Y60468D02*
X272696Y60468D01*
G54D10*
X64096Y517668D02*
X44096Y517668D01*
G54D10*
X64096Y492268D02*
X44096Y492268D01*
G54D10*
X64096Y466868D02*
X44096Y466868D01*
G54D10*
X64096Y441468D02*
X44096Y441468D01*
G54D10*
X64096Y416068D02*
X44096Y416068D01*
G54D10*
X64096Y390668D02*
X44096Y390668D01*
G54D10*
X64096Y365268D02*
X44096Y365268D01*
G54D10*
X64096Y339868D02*
X44096Y339868D01*
G54D10*
X64096Y314468D02*
X44096Y314468D01*
G54D10*
X64096Y289068D02*
X44096Y289068D01*
G54D10*
X64096Y263668D02*
X44096Y263668D01*
G54D10*
X64096Y238268D02*
X44096Y238268D01*
G54D10*
X64096Y212868D02*
X44096Y212868D01*
G54D10*
X64096Y187468D02*
X44096Y187468D01*
G54D10*
X64096Y162068D02*
X44096Y162068D01*
G54D10*
X64096Y136668D02*
X44096Y136668D01*
G54D10*
X64096Y111268D02*
X44096Y111268D01*
G54D10*
X64096Y85868D02*
X44096Y85868D01*
G54D10*
X64096Y60468D02*
X44096Y60468D01*
G54D11*
X174128Y305763D02*
X174128Y296429D01*
X191906Y296429D01*
X191906Y305763D01*
G54D11*
X183017Y296429D02*
X183017Y305763D01*
G54D11*
X177461Y310651D02*
X175239Y311985D01*
X174128Y314651D01*
X174128Y317318D01*
X175239Y319985D01*
X177461Y321318D01*
X179684Y321318D01*
X181906Y319985D01*
X183017Y317318D01*
X183017Y314651D01*
X184128Y311985D01*
X186350Y310651D01*
X188573Y310651D01*
X190795Y311985D01*
X191906Y314651D01*
X191906Y317318D01*
X190795Y319985D01*
X188573Y321318D01*
G54D11*
X174128Y326207D02*
X191906Y326207D01*
X191906Y332874D01*
X190795Y335541D01*
X188573Y336874D01*
X186350Y336874D01*
X184128Y335541D01*
X183017Y332874D01*
X183017Y326207D01*
G54D11*
X188573Y341763D02*
X190795Y343097D01*
X191906Y345763D01*
X191906Y348430D01*
X190795Y351097D01*
X188573Y352430D01*
X186350Y352430D01*
X184128Y351097D01*
X183017Y348430D01*
X181906Y351097D01*
X179684Y352430D01*
X177461Y352430D01*
X175239Y351097D01*
X174128Y348430D01*
X174128Y345763D01*
X175239Y343097D01*
X177461Y341763D01*
G54D11*
X174128Y367986D02*
X174128Y357319D01*
X175239Y357319D01*
X177461Y358653D01*
X184128Y366653D01*
X186350Y367986D01*
X188573Y367986D01*
X190795Y366653D01*
X191906Y363986D01*
X191906Y361319D01*
X190795Y358653D01*
X188573Y357319D01*
G54D12*
X106520Y187471D02*
X282696Y187468D01*
X388072Y187124D01*
G54D12*
X318796Y148220D02*
X319193Y60589D01*
X282696Y60468D01*
G54D12*
X387655Y95029D02*
X387691Y10691D01*
X15025Y10294D01*
X14822Y263668D01*
X54096Y263668D01*
G54D12*
X387655Y168450D02*
X363517Y168446D01*
X363517Y30731D01*
X88086Y31128D01*
X88280Y238464D01*
X54132Y238464D01*
G54D12*
X106520Y187471D02*
X106520Y517274D01*
X106917Y517671D01*
X54096Y517668D01*
G54D12*
X54096Y365268D02*
X106523Y365268D01*
X106917Y364874D01*
G54D12*
X380853Y212638D02*
X394853Y212638D01*
G54D12*
X380655Y168450D02*
X394655Y168450D01*
G54D12*
X380655Y95029D02*
X394655Y95029D01*
G36*
X402072Y194124D02*
X374072Y194124D01*
X374072Y180124D01*
X402072Y180124D01*
X402072Y194124D01*
G37*
G54D11*
X317088Y169944D02*
X306421Y169944D01*
G54D11*
X311754Y165500D02*
X311754Y174389D01*
G54D11*
X323327Y170104D02*
X333993Y170104D01*
G54D13*
X344593Y68589D02*
X344593Y52589D01*
G54D13*
X319193Y68589D02*
X319193Y52589D01*
G54D13*
X344196Y156220D02*
X344196Y140220D01*
G54D13*
X318796Y156220D02*
X318796Y140220D01*
G54D12*
X344593Y60589D02*
X344593Y147823D01*
X344196Y148220D01*
X344196Y187138D01*
X344034Y187300D01*
M02*
