; Drill file
; Format: 2.4 (00.0000)
M48
INCH
T01C0.0315
%
G05
G90
T01
X-002580Y002390
X-003580Y002390
X-005010Y002380
X-005010Y003380
X-005010Y004380
X-005010Y005380
X-005010Y006380
X-005010Y007380
X-005010Y008380
X-005010Y009380
X-005010Y010380
X-005010Y011380
X-005010Y012380
X-005010Y013380
X-005010Y014380
X-005010Y015380
X-005010Y016380
X-005010Y017380
X-005010Y018380
X-005010Y019380
X-005010Y020380
X-014010Y020380
X-014010Y019380
X-014010Y018380
X-014010Y017380
X-014010Y016380
X-014010Y015380
X-014010Y014380
X-014010Y013380
X-014010Y012380
X-014010Y011380
X-014010Y010380
X-014010Y009380
X-014010Y008380
X-014010Y007380
X-014010Y006380
X-014010Y005380
X-014010Y004380
X-014010Y003380
X-014010Y002380
X-003590Y005840
X-002590Y005840
X-000880Y006630
X-000860Y007370
X-000870Y008370
X-000880Y003740
M30
