; Drill file
; Format: 2.4 (00.0000)
M48
INCH
T01C0.0315
%
G05
G90
T01
X013570Y002390
X012570Y002390
X011130Y002380
X011130Y003380
X011130Y004380
X011130Y005380
X011130Y006380
X011130Y007380
X011130Y008380
X011130Y009380
X011130Y010380
X011130Y011380
X011130Y012380
X011130Y013380
X011130Y014380
X011130Y015380
X011130Y016380
X011130Y017380
X011130Y018380
X011130Y019380
X011130Y020380
X002130Y020380
X002130Y019380
X002130Y018380
X002130Y017380
X002130Y016380
X002130Y015380
X002130Y014380
X002130Y013380
X002130Y012380
X002130Y011380
X002130Y010380
X002130Y009380
X002130Y008380
X002130Y007380
X002130Y006380
X002130Y005380
X002130Y004380
X002130Y003380
X002130Y002380
X012550Y005840
X013550Y005840
X015260Y006630
X015280Y007370
X015270Y008370
X015260Y003740
M30
