; Drill file
; Format: 2.4 (00.0000)
M48
INCH
T01C0.0315
%
G05
G90
T01
X-000770Y000530
X-002420Y002080
X-003420Y002080
X-004420Y002080
X-005420Y002080
X-006420Y002080
X-007420Y002080
X-008420Y002080
X-009420Y002080
X-010420Y002080
X-011420Y002080
X-012420Y002080
X-013420Y002080
X-014420Y002080
X-015420Y002080
X-016420Y002080
X-017420Y002080
X-018420Y002080
X-019420Y002080
X-020420Y002080
X-020420Y011080
X-019420Y011080
X-018420Y011080
X-017420Y011080
X-016420Y011080
X-015420Y011080
X-014420Y011080
X-013420Y011080
X-012420Y011080
X-011420Y011080
X-010420Y011080
X-009420Y011080
X-008420Y011080
X-007420Y011080
X-006420Y011080
X-005420Y011080
X-004420Y011080
X-003420Y011080
X-002420Y011080
X-000760Y005160
X-000750Y004160
X-000770Y003420
M30
