%FSLAX34Y34*%
%MOMM*%
%LNCOPPER_BOTTOM*%
G71*
G01*
%ADD10C,2.000*%
%ADD11C,0.222*%
%ADD12C,1.400*%
%ADD13C,1.600*%
%LPD*%
G54D10*
X-117304Y517668D02*
X-137304Y517668D01*
G54D10*
X-117304Y492268D02*
X-137304Y492268D01*
G54D10*
X-117304Y466868D02*
X-137304Y466868D01*
G54D10*
X-117304Y441468D02*
X-137304Y441468D01*
G54D10*
X-117304Y416068D02*
X-137304Y416068D01*
G54D10*
X-117304Y390668D02*
X-137304Y390668D01*
G54D10*
X-117304Y365268D02*
X-137304Y365268D01*
G54D10*
X-117304Y339868D02*
X-137304Y339868D01*
G54D10*
X-117304Y314468D02*
X-137304Y314468D01*
G54D10*
X-117304Y289068D02*
X-137304Y289068D01*
G54D10*
X-117304Y263668D02*
X-137304Y263668D01*
G54D10*
X-117304Y238268D02*
X-137304Y238268D01*
G54D10*
X-117304Y212868D02*
X-137304Y212868D01*
G54D10*
X-117304Y187468D02*
X-137304Y187468D01*
G54D10*
X-117304Y162068D02*
X-137304Y162068D01*
G54D10*
X-117304Y136668D02*
X-137304Y136668D01*
G54D10*
X-117304Y111268D02*
X-137304Y111268D01*
G54D10*
X-117304Y85868D02*
X-137304Y85868D01*
G54D10*
X-117304Y60468D02*
X-137304Y60468D01*
G54D10*
X-345904Y517668D02*
X-365904Y517668D01*
G54D10*
X-345904Y492268D02*
X-365904Y492268D01*
G54D10*
X-345904Y466868D02*
X-365904Y466868D01*
G54D10*
X-345904Y441468D02*
X-365904Y441468D01*
G54D10*
X-345904Y416068D02*
X-365904Y416068D01*
G54D10*
X-345904Y390668D02*
X-365904Y390668D01*
G54D10*
X-345904Y365268D02*
X-365904Y365268D01*
G54D10*
X-345904Y339868D02*
X-365904Y339868D01*
G54D10*
X-345904Y314468D02*
X-365904Y314468D01*
G54D10*
X-345904Y289068D02*
X-365904Y289068D01*
G54D10*
X-345904Y263668D02*
X-365904Y263668D01*
G54D10*
X-345904Y238268D02*
X-365904Y238268D01*
G54D10*
X-345904Y212868D02*
X-365904Y212868D01*
G54D10*
X-345904Y187468D02*
X-365904Y187468D01*
G54D10*
X-345904Y162068D02*
X-365904Y162068D01*
G54D10*
X-345904Y136668D02*
X-365904Y136668D01*
G54D10*
X-345904Y111268D02*
X-365904Y111268D01*
G54D10*
X-345904Y85868D02*
X-365904Y85868D01*
G54D10*
X-345904Y60468D02*
X-365904Y60468D01*
G54D11*
X-235872Y305763D02*
X-235872Y296429D01*
X-218094Y296429D01*
X-218094Y305763D01*
G54D11*
X-226983Y296429D02*
X-226983Y305763D01*
G54D11*
X-232539Y310651D02*
X-234761Y311985D01*
X-235872Y314651D01*
X-235872Y317318D01*
X-234761Y319985D01*
X-232539Y321318D01*
X-230316Y321318D01*
X-228094Y319985D01*
X-226983Y317318D01*
X-226983Y314651D01*
X-225872Y311985D01*
X-223650Y310651D01*
X-221427Y310651D01*
X-219205Y311985D01*
X-218094Y314651D01*
X-218094Y317318D01*
X-219205Y319985D01*
X-221427Y321318D01*
G54D11*
X-235872Y326207D02*
X-218094Y326207D01*
X-218094Y332874D01*
X-219205Y335541D01*
X-221427Y336874D01*
X-223650Y336874D01*
X-225872Y335541D01*
X-226983Y332874D01*
X-226983Y326207D01*
G54D11*
X-221427Y341763D02*
X-219205Y343097D01*
X-218094Y345763D01*
X-218094Y348430D01*
X-219205Y351097D01*
X-221427Y352430D01*
X-223650Y352430D01*
X-225872Y351097D01*
X-226983Y348430D01*
X-228094Y351097D01*
X-230316Y352430D01*
X-232539Y352430D01*
X-234761Y351097D01*
X-235872Y348430D01*
X-235872Y345763D01*
X-234761Y343097D01*
X-232539Y341763D01*
G54D11*
X-235872Y367986D02*
X-235872Y357319D01*
X-234761Y357319D01*
X-232539Y358653D01*
X-225872Y366653D01*
X-223650Y367986D01*
X-221427Y367986D01*
X-219205Y366653D01*
X-218094Y363986D01*
X-218094Y361319D01*
X-219205Y358653D01*
X-221427Y357319D01*
G54D12*
X-303480Y187471D02*
X-127304Y187468D01*
X-21928Y187124D01*
G54D12*
X-91204Y148220D02*
X-90807Y60589D01*
X-127304Y60468D01*
G54D12*
X-22345Y95029D02*
X-22309Y10691D01*
X-394975Y10294D01*
X-395178Y263668D01*
X-355904Y263668D01*
G54D12*
X-22345Y168450D02*
X-46483Y168446D01*
X-46483Y30731D01*
X-321914Y31128D01*
X-321720Y238464D01*
X-355868Y238464D01*
G54D12*
X-303480Y187471D02*
X-303480Y517274D01*
X-303083Y517671D01*
X-355904Y517668D01*
G54D12*
X-355904Y365268D02*
X-303477Y365268D01*
X-303083Y364874D01*
G54D12*
X-29147Y212638D02*
X-15147Y212638D01*
G54D12*
X-29345Y168450D02*
X-15345Y168450D01*
G54D12*
X-29345Y95029D02*
X-15345Y95029D01*
G36*
X-7928Y194124D02*
X-35928Y194124D01*
X-35928Y180124D01*
X-7928Y180124D01*
X-7928Y194124D01*
G37*
G54D11*
X-92912Y169944D02*
X-103579Y169944D01*
G54D11*
X-98246Y165500D02*
X-98246Y174389D01*
G54D11*
X-86673Y170104D02*
X-76007Y170104D01*
G54D13*
X-65407Y68589D02*
X-65407Y52589D01*
G54D13*
X-90807Y68589D02*
X-90807Y52589D01*
G54D13*
X-65804Y156220D02*
X-65804Y140220D01*
G54D13*
X-91204Y156220D02*
X-91204Y140220D01*
G54D12*
X-65407Y60589D02*
X-65407Y147823D01*
X-65804Y148220D01*
X-65804Y187138D01*
X-65966Y187300D01*
M02*
